<svg width="512" height="512" viewBox="0 0 512 512" fill="none" xmlns="http://www.w3.org/2000/svg">
<g clip-path="url(#clip0)">
<path d="M501.083 270.593V255.274C501.083 224.486 484.472 197.514 459.751 182.816C469.354 172.403 475.234 158.508 475.234 143.261C475.234 111.059 449.036 84.8603 416.834 84.8603C384.631 84.8603 358.433 111.058 358.433 143.261C358.433 158.513 364.315 172.411 373.923 182.823C367.85 186.423 362.233 190.779 357.218 195.795C345.485 175.903 328.063 159.753 307.201 149.603C324.275 135.074 335.137 113.452 335.137 89.3281C335.137 45.6888 299.633 10.1845 255.993 10.1845C212.354 10.1845 176.85 45.6888 176.85 89.3281C176.85 113.451 187.711 135.074 204.786 149.603C183.924 159.753 166.503 175.904 154.769 195.795C149.754 190.779 144.136 186.423 138.063 182.823C147.671 172.411 153.554 158.512 153.554 143.261C153.554 111.059 127.356 84.8603 95.1541 84.8603C62.9524 84.8603 36.7533 111.058 36.7533 143.26C36.7533 158.508 42.6334 172.402 52.2369 182.815C27.5154 197.514 10.9045 224.485 10.9045 255.273V270.592C152.848 270.593 265.191 270.593 501.083 270.593V270.593ZM389.07 143.26C389.07 127.951 401.525 115.496 416.835 115.496C432.144 115.496 444.599 127.95 444.599 143.26C444.599 158.57 432.145 171.025 416.835 171.025C401.525 171.025 389.07 158.57 389.07 143.26ZM370.369 228.544C379.872 212.06 397.594 201.661 416.835 201.661C441.076 201.661 461.612 217.835 468.219 239.956H372.439C371.952 236.231 371.201 232.119 370.369 228.544ZM207.486 89.3281C207.486 62.5817 229.247 40.8208 255.993 40.8208C282.74 40.8208 304.501 62.5817 304.501 89.3281C304.501 116.075 282.74 137.836 255.993 137.836C229.247 137.836 207.486 116.075 207.486 89.3281ZM255.993 168.472C298.925 168.472 334.239 199.673 341.443 239.956H170.544C177.751 199.65 213.085 168.472 255.993 168.472ZM67.3895 143.26C67.3895 127.951 79.8442 115.496 95.1541 115.496C110.464 115.496 122.918 127.95 122.918 143.26C122.918 158.57 110.463 171.025 95.1541 171.025C79.8452 171.025 67.3895 158.57 67.3895 143.26ZM43.769 239.956C50.3762 217.835 70.9117 201.661 95.1531 201.661C114.393 201.661 132.116 212.061 141.618 228.544C140.786 232.118 140.036 236.229 139.549 239.956H43.769Z" fill="white"/>
<path d="M512 398.945L451.535 390.161L424.496 335.371L397.454 390.162L340.308 398.465L361.384 377.922L288.562 367.34L255.994 301.35L223.427 367.34L150.605 377.922L171.677 398.463L114.546 390.162L87.5063 335.372L60.4657 390.162L0 398.946L43.7526 441.594L33.4241 501.816L87.5053 473.382L141.586 501.816L131.257 441.594L173.592 400.329L203.298 429.285L190.859 501.813L255.993 467.57L321.128 501.813L308.689 429.285L338.402 400.323L380.742 441.594L370.414 501.816L424.495 473.382L478.575 501.816L468.246 441.594L512 398.945ZM100.896 445.81L87.5053 438.77L74.1132 445.811L76.6703 430.899L65.8373 420.339L80.8092 418.163L87.5053 404.597L94.2013 418.163L109.173 420.339L98.3382 430.899L100.896 445.81ZM280.44 445.811L255.993 432.96L231.547 445.811L236.216 418.591L216.438 399.313L243.77 395.34L255.992 370.574L268.215 395.34L295.547 399.313L275.769 418.591L280.44 445.811ZM437.887 445.811L424.495 438.77L411.103 445.811L413.66 430.899L402.827 420.338L417.799 418.162L424.495 404.595L431.191 418.162L446.163 420.338L435.33 430.899L437.887 445.811Z" fill="white"/>
</g>
<defs>
<clipPath id="clip0">
<rect width="512" height="512" fill="white"/>
</clipPath>
</defs>
</svg>
