<svg width="512" height="512" viewBox="0 0 512 512" fill="none" xmlns="http://www.w3.org/2000/svg">
<path d="M437.02 74.98C388.667 26.629 324.38 0 256 0C187.62 0 123.333 26.629 74.98 74.98C26.629 123.332 0 187.62 0 256C0 323.236 25.882 386.76 72.879 434.868C79.439 441.58 90.466 431.405 83.608 424.386C39.366 379.097 15 319.296 15 256C15 191.626 40.068 131.106 85.587 85.587C131.106 40.068 191.626 15 256 15C320.373 15 380.894 40.068 426.412 85.587C471.932 131.106 497 191.627 497 256C497 320.373 471.932 380.894 426.412 426.412C380.894 471.932 320.373 497 256 497C203.922 497 154.342 480.649 112.619 449.716C105.082 444.122 95.803 455.921 103.685 461.765C148.012 494.629 200.681 512 256 512C324.38 512 388.667 485.371 437.02 437.02C485.371 388.667 512 324.38 512 256C512 187.62 485.371 123.332 437.02 74.98V74.98Z" fill="white"/>
<path d="M385.647 145.525C367.619 127.498 343.65 117.569 318.155 117.569C295.088 117.569 273.27 125.698 255.971 140.598C218.623 108.479 161.154 110.707 126.347 145.513C91.135 180.726 89.896 237.674 121.472 275.643C109.074 287.085 107.749 306.665 119.957 318.861C125.865 324.77 134.133 327.908 142.467 327.449C141.512 344.78 156.218 359.501 173.565 358.547C172.61 375.867 187.318 390.603 204.664 389.629C203.1 417.748 237.92 430.408 256.461 410.648C261.265 415.256 266.948 419.598 275.141 420.662C293.13 422.997 309.546 407.687 308.377 389.611C325.545 390.376 340.541 375.756 339.482 358.513C344.153 358.712 348.951 357.778 353.491 355.659C364.653 350.453 371.295 339.451 370.584 327.474C378.156 327.896 385.867 325.445 391.855 320.152C409 305 402.461 286.94 391.22 274.436C405.706 257.261 413.604 235.748 413.604 213.018C413.604 187.522 403.675 163.554 385.647 145.525V145.525ZM140.808 312.499C128.226 312.499 121.621 296.708 130.563 287.765L157.183 261.145C170.365 247.963 190.878 268.433 177.674 281.635L151.053 308.256C148.317 310.992 144.678 312.499 140.808 312.499V312.499ZM171.906 343.597C159.324 343.597 152.717 327.806 161.66 318.863L188.281 292.243C201.463 279.061 221.985 299.522 208.772 312.733L182.152 339.354C179.415 342.09 175.776 343.597 171.906 343.597V343.597ZM192.758 370.45C187.219 364.912 187.208 355.51 192.758 349.96L219.378 323.34C232.56 310.158 253.072 330.626 239.869 343.83L213.249 370.45C207.6 376.101 198.407 376.101 192.758 370.45V370.45ZM223.855 401.548C218.309 395.982 218.273 386.639 223.855 381.058L250.475 354.437C263.673 341.242 284.177 361.721 270.965 374.928L244.345 401.548C238.697 407.198 229.505 407.198 223.855 401.548ZM293.339 393.153C292.886 396.938 290.921 400.357 287.806 402.781C280.805 408.229 272.944 405.608 267.073 400.035C273.588 393.52 282.258 386.881 286.693 378.672C290.8 382.468 294.047 387.252 293.339 393.153ZM383.274 307.845C379.143 311.976 369.001 315.369 361.994 308.372C345.322 291.714 328.46 274.837 311.722 258.099C305.084 251.465 294.176 261.766 301.115 268.706C317.872 285.463 334.65 302.197 351.386 318.976C364.424 332.051 343.311 351.884 330.895 339.467C314.138 322.71 297.382 305.953 280.625 289.196C273.987 282.562 263.079 292.863 270.018 299.803C286.756 316.541 303.645 333.39 320.289 350.074C333.313 363.13 312.896 383.562 299.825 370.588L289.94 360.703C287.921 345.649 274.178 334.399 259.049 335.244C260.016 317.937 245.279 303.195 227.966 304.162C228.928 286.847 214.203 272.087 196.853 273.065C197.31 264.965 194.456 256.712 188.282 250.537C176.784 239.042 158.076 239.04 146.578 250.538L132.263 264.853C109.636 230.096 105.423 187.654 136.955 156.121C165.901 127.175 213.607 124.9 245.123 151.066L201.494 194.695C174.592 221.599 216.392 263.206 243.198 236.4L287.089 192.508L322.706 228.145C329.341 234.784 340.251 224.482 333.315 217.541C333.315 217.541 299.476 182.179 291.784 176.03C288.825 173.663 284.461 173.923 281.786 176.595L232.591 225.791C219.397 238.99 198.891 218.509 212.1 205.301L261.27 156.131C276.464 140.936 296.667 132.568 318.156 132.568C339.645 132.568 359.846 140.936 375.042 156.131C390.236 171.325 398.605 191.527 398.605 213.016C398.605 231.871 392.157 249.732 380.313 264.092L361.457 245.7C354.822 239.061 343.912 249.363 350.848 256.304C357.789 262.849 378.043 282.34 378.043 282.34C383.317 287.677 393.667 298.167 383.274 307.845V307.845Z" fill="white"/>
</svg>
