<svg width="24" height="18" viewBox="0 0 24 18" fill="none" xmlns="http://www.w3.org/2000/svg">
<path fill-rule="evenodd" clip-rule="evenodd" d="M9 0C3.748 1.039 0 4.905 0 10.609V18H9.983V8H6C6 5.789 7.563 3.068 9.996 2.151L9 0ZM23 0C17.748 1.039 14.017 4.905 14.017 10.609V18H24V8H20C20 5.789 21.563 3.068 23.995 2.151L23 0ZM22.433 1.156L22.674 1.676C20.28 3.067 19 5.835 19 8V9H23V17H15.017V10.609C15.017 5.922 17.837 2.361 22.433 1.156V1.156ZM8.433 1.155L8.674 1.676C6.28 3.067 5 5.835 5 8V9H8.983V17H1V10.609C1 5.923 3.827 2.362 8.433 1.155" fill="white"/>
</svg>
