<svg height="512pt" viewBox="0 0 512 512" width="512pt" xmlns="http://www.w3.org/2000/svg"><path d="m207.078125 285.199219c0-17.804688-32.695313-10.863281-32.695313-35.007813 0-14.890625 12.472657-19.316406 23.238282-19.316406 6.539062 0 18.308594 1.710938 18.308594 7.242188 0 2.015624-1.40625 5.734374-4.425782 5.734374-2.714844 0-5.332031-3.820312-13.882812-3.820312-7.34375 0-12.574219 2.816406-12.574219 9.152344 0 14.890625 32.695313 8.148437 32.695313 34.910156 0 14.386719-9.660157 21.429688-22.9375 21.429688-13.078126 0-22.234376-6.84375-22.234376-11.871094 0-2.417969 2.113282-5.734375 4.628907-5.734375 3.621093 0 6.035156 7.945312 17.203125 7.945312 7.242187 0 12.675781-3.421875 12.675781-10.664062zm0 0"/><path d="m243.699219 263.671875h15.492187c2.214844 0 3.523438 2.011719 3.523438 4.324219 0 1.910156-1.109375 4.125-3.523438 4.125h-15.492187v23.140625h29.878906c2.210937 0 3.519531 2.210937 3.519531 4.828125 0 2.210937-1.105468 4.625-3.519531 4.625h-35.8125c-2.316406 0-4.730469-1.207032-4.730469-3.519532v-66.5c0-2.3125 2.414063-3.519531 4.730469-3.519531h35.8125c2.414063 0 3.519531 2.414063 3.519531 4.628907 0 2.613281-1.308594 4.828124-3.519531 4.828124h-29.878906zm0 0"/><path d="m289.273438 282.886719v-29.277344c0-16.296875 9.757812-22.433594 22.535156-22.433594 12.675781 0 22.636718 6.136719 22.636718 22.433594v29.277344c0 16.296875-9.960937 22.433593-22.636718 22.433593-12.773438 0-22.535156-6.136718-22.535156-22.433593zm34.507812-29.277344c0-8.851563-4.527344-12.976563-11.972656-12.976563-7.542969 0-11.871094 4.125-11.871094 12.976563v29.277344c0 8.851562 4.328125 12.976562 11.871094 12.976562 7.445312 0 11.972656-4.125 11.972656-12.976562zm0 0"/><path d="m379.925781 44.710938c0 5.195312-4.214843 9.410156-9.410156 9.410156s-9.410156-4.214844-9.410156-9.410156c0-5.195313 4.214843-9.410157 9.410156-9.410157s9.410156 4.214844 9.410156 9.410157zm0 0"/><path d="m425.03125 44.710938c0 5.195312-4.214844 9.410156-9.410156 9.410156-5.195313 0-9.410156-4.214844-9.410156-9.410156 0-5.195313 4.214843-9.410157 9.410156-9.410157 5.195312 0 9.410156 4.214844 9.410156 9.410157zm0 0"/><path d="m470.136719 44.710938c0 5.195312-4.214844 9.410156-9.410157 9.410156-5.195312 0-9.410156-4.214844-9.410156-9.410156 0-5.195313 4.214844-9.410157 9.410156-9.410157 5.195313 0 9.410157 4.214844 9.410157 9.410157zm0 0"/><path d="m233.511719 37.210938h-182.652344c-4.140625 0-7.5 3.355468-7.5 7.5 0 4.140624 3.359375 7.5 7.5 7.5h182.652344c4.140625 0 7.5-3.359376 7.5-7.5 0-4.144532-3.359375-7.5-7.5-7.5zm0 0"/><path d="m345.21875 181.707031c-23.976562-23.972656-55.851562-37.175781-89.753906-37.175781-33.90625 0-65.78125 13.203125-89.757813 37.175781-49.488281 49.492188-49.488281 130.019531 0 179.511719 23.976563 23.972656 55.851563 37.175781 89.757813 37.175781 33.902344 0 65.777344-13.203125 89.753906-37.175781 49.492188-49.492188 49.492188-130.019531 0-179.511719zm-10.605469 168.902344c-21.140625 21.144531-49.25 32.785156-79.148437 32.785156-29.898438 0-58.007813-11.644531-79.148438-32.785156-43.644531-43.640625-43.644531-114.652344 0-158.296875 21.140625-21.140625 49.25-32.78125 79.148438-32.78125 29.898437 0 58.007812 11.640625 79.148437 32.78125 43.640625 43.644531 43.640625 114.65625 0 158.296875zm0 0"/><path d="m504.5 174.839844c-4.140625 0-7.5 3.355468-7.5 7.5v303.46875c0 6.171875-5.019531 11.191406-11.191406 11.191406h-18.824219l15.582031-15.582031c3.132813-3.132813 4.859375-7.300781 4.859375-11.730469s-1.726562-8.597656-4.859375-11.730469l-70.019531-70.019531c-6.46875-6.46875-16.992187-6.46875-23.460937 0l-3.269532 3.269531-13.160156-13.160156c56.535156-62.09375 54.816406-158.617187-5.175781-218.605469-61.765625-61.765625-162.265625-61.765625-224.035157 0-29.921874 29.921875-46.398437 69.703125-46.398437 112.019532 0 42.3125 16.476563 82.097656 46.398437 112.019531 30.882813 30.882812 71.449219 46.324219 112.019532 46.324219 38.230468 0 76.460937-13.722657 106.585937-41.152344l13.160157 13.160156-3.269532 3.265625c-3.132812 3.136719-4.859375 7.300781-4.859375 11.730469 0 4.433594 1.726563 8.597656 4.859375 11.730468l68.457032 68.460938h-414.207032c-6.171875 0-11.191406-5.019531-11.191406-11.191406v-65.273438c0-4.140625-3.359375-7.5-7.5-7.5s-7.5 3.359375-7.5 7.5v65.273438c0 14.441406 11.75 26.191406 26.191406 26.191406h459.617188c14.441406 0 26.191406-11.75 26.191406-26.191406v-303.46875c0-4.144532-3.359375-7.5-7.5-7.5zm-350.449219 198.035156c-27.085937-27.089844-42.003906-63.105469-42.003906-101.414062 0-38.308594 14.917969-74.324219 42.003906-101.410157 27.960938-27.960937 64.6875-41.941406 101.414063-41.941406 36.726562 0 73.453125 13.980469 101.410156 41.941406 55.917969 55.917969 55.917969 146.902344 0 202.824219-55.917969 55.917969-146.902344 55.917969-202.824219 0zm228.03125 43.9375c0-.300781.082031-.738281.464844-1.125l17.144531-17.140625c.3125-.3125.71875-.464844 1.125-.464844s.8125.152344 1.125.464844l70.019532 70.019531c.382812.382813.464843.820313.464843 1.121094s-.082031.738281-.464843 1.125l-17.144532 17.144531c-.621094.617188-1.628906.617188-2.25 0l-70.019531-70.019531c-.382813-.386719-.464844-.824219-.464844-1.125zm0 0"/><path d="m485.808594 0h-459.617188c-14.441406 0-26.191406 11.75-26.191406 26.191406v364.378906c0 4.144532 3.359375 7.5 7.5 7.5s7.5-3.355468 7.5-7.5v-301.148437h482v62.722656c0 4.144531 3.359375 7.5 7.5 7.5s7.5-3.355469 7.5-7.5v-125.953125c0-14.441406-11.75-26.191406-26.191406-26.191406zm-470.808594 74.421875v-48.230469c0-6.171875 5.019531-11.191406 11.191406-11.191406h459.617188c6.171875 0 11.191406 5.019531 11.191406 11.191406v48.230469zm0 0"/></svg>