<svg width="512" height="512" viewBox="0 0 512 512" fill="none" xmlns="http://www.w3.org/2000/svg">
<path d="M248 448H264V464H248V448Z" fill="white"/>
<path d="M386.03 397.424L397.343 386.11L408.657 397.424L397.343 408.738L386.03 397.424Z" fill="white"/>
<path d="M448 248H464V264H448V248Z" fill="white"/>
<path d="M488 200H431.28C428.185 190.239 424.264 180.76 419.56 171.664L459.648 131.568C461.148 130.068 461.99 128.033 461.99 125.912C461.99 123.791 461.148 121.756 459.648 120.256L425.704 86.32C403.497 63.6862 377.025 45.6773 347.817 33.3339C318.61 20.9904 287.246 14.5571 255.537 14.4057C223.829 14.2543 192.405 20.3877 163.081 32.4516C133.757 44.5155 107.114 62.2707 84.6915 84.6913C62.2692 107.112 44.5121 133.754 32.4462 163.077C20.3802 192.4 14.2446 223.824 14.3938 255.532C14.5429 287.241 20.974 318.605 33.3154 347.814C45.6568 377.022 63.6638 403.495 86.296 425.704L120.232 459.648C121.732 461.148 123.767 461.99 125.888 461.99C128.009 461.99 130.044 461.148 131.544 459.648L171.64 419.56C180.744 424.262 190.231 428.18 200 431.272V488C200 490.122 200.843 492.157 202.343 493.657C203.843 495.157 205.878 496 208 496H304C306.122 496 308.157 495.157 309.657 493.657C311.157 492.157 312 490.122 312 488V431.28C321.76 428.187 331.24 424.269 340.336 419.568L380.432 459.656C381.932 461.156 383.967 461.998 386.088 461.998C388.209 461.998 390.244 461.156 391.744 459.656L459.624 391.776C461.124 390.276 461.966 388.241 461.966 386.12C461.966 383.999 461.124 381.964 459.624 380.464L419.536 340.368C424.247 331.262 428.173 321.772 431.272 312H488C490.122 312 492.157 311.157 493.657 309.657C495.157 308.157 496 306.122 496 304V208C496 205.878 495.157 203.843 493.657 202.343C492.157 200.843 490.122 200 488 200V200ZM97.6 97.6C138.621 56.566 193.969 33.0575 251.981 32.0278C309.994 30.9981 366.141 52.5276 408.592 92.08L397.296 103.376C357.817 66.9424 305.773 47.1965 252.062 48.2734C198.351 49.3503 147.14 71.1666 109.153 109.153C71.1666 147.14 49.3504 198.351 48.2734 252.062C47.1965 305.773 66.9424 357.817 103.376 397.296L92.08 408.592C52.5276 366.141 30.9981 309.994 32.0278 251.981C33.0575 193.969 56.566 138.621 97.6 97.6V97.6ZM323.88 188.12C341.641 206.173 351.55 230.513 351.446 255.838C351.343 281.163 341.237 305.422 323.329 323.329C305.422 341.237 281.163 351.343 255.838 351.446C230.513 351.549 206.173 341.641 188.12 323.88C186.62 322.38 184.585 321.538 182.464 321.538C180.343 321.538 178.308 322.38 176.808 323.88L114.696 385.992C81.1437 349.538 62.9821 301.524 64.0084 251.99C65.0346 202.456 85.1693 155.236 120.203 120.203C155.236 85.1692 202.456 65.0346 251.99 64.0083C301.524 62.9821 349.538 81.1437 385.992 114.696L323.88 176.8C323.136 177.543 322.546 178.425 322.144 179.396C321.741 180.368 321.534 181.409 321.534 182.46C321.534 183.511 321.741 184.552 322.144 185.523C322.546 186.495 323.136 187.377 323.88 188.12V188.12ZM480 296H425.312C423.563 295.999 421.862 296.571 420.469 297.629C419.077 298.686 418.069 300.171 417.6 301.856C414.086 314.405 409.088 326.49 402.712 337.856C401.853 339.381 401.517 341.146 401.757 342.88C401.997 344.614 402.799 346.222 404.04 347.456L442.672 386.096L386.112 442.656L347.472 404.024C346.238 402.783 344.63 401.981 342.896 401.741C341.162 401.501 339.397 401.837 337.872 402.696C326.506 409.072 314.421 414.07 301.872 417.584C300.187 418.053 298.702 419.061 297.645 420.453C296.587 421.846 296.015 423.547 296.016 425.296V480H216V425.312C216.001 423.563 215.429 421.862 214.371 420.469C213.314 419.077 211.829 418.069 210.144 417.6C197.595 414.086 185.51 409.088 174.144 402.712C172.619 401.853 170.854 401.517 169.12 401.757C167.386 401.997 165.778 402.799 164.544 404.04L125.904 442.672L103.28 420.048L182.68 340.656C204.086 359.188 231.717 368.925 260.012 367.908C288.308 366.89 315.168 355.194 335.188 335.172C355.207 315.15 366.901 288.289 367.916 259.993C368.93 231.698 359.19 204.068 340.656 182.664L420.048 103.264L442.672 125.888L404.04 164.528C402.799 165.762 401.997 167.37 401.757 169.104C401.517 170.838 401.853 172.603 402.712 174.128C409.089 185.493 414.087 197.578 417.6 210.128C418.069 211.813 419.077 213.298 420.469 214.355C421.862 215.413 423.563 215.985 425.312 215.984H480V296Z" fill="white"/>
<path d="M264 225.136V136C264 133.878 263.157 131.843 261.657 130.343C260.157 128.843 258.122 128 256 128C253.878 128 251.843 128.843 250.343 130.343C248.843 131.843 248 133.878 248 136V225.136C242.502 226.574 237.486 229.449 233.468 233.468C229.449 237.486 226.574 242.502 225.136 248H168C165.878 248 163.843 248.843 162.343 250.343C160.843 251.843 160 253.878 160 256C160 258.122 160.843 260.157 162.343 261.657C163.843 263.157 165.878 264 168 264H225.136C226.535 269.459 229.354 274.451 233.306 278.468C237.258 282.486 242.203 285.386 247.638 286.875C253.074 288.363 258.806 288.386 264.254 286.943C269.701 285.499 274.67 282.64 278.655 278.655C282.64 274.67 285.499 269.701 286.943 264.254C288.386 258.806 288.363 253.074 286.875 247.638C285.386 242.203 282.486 237.258 278.468 233.306C274.451 229.354 269.459 226.535 264 225.136V225.136ZM256 272C252.835 272 249.742 271.062 247.111 269.304C244.48 267.545 242.429 265.047 241.218 262.123C240.007 259.199 239.69 255.982 240.307 252.879C240.925 249.775 242.449 246.924 244.686 244.686C246.924 242.449 249.775 240.925 252.879 240.307C255.982 239.69 259.199 240.007 262.123 241.218C265.047 242.429 267.545 244.48 269.304 247.111C271.062 249.742 272 252.835 272 256C272 260.243 270.314 264.313 267.314 267.314C264.313 270.314 260.243 272 256 272Z" fill="white"/>
<path d="M256 104C253.878 104 251.843 103.157 250.343 101.657C248.843 100.157 248 98.1217 248 96V80C248 77.8783 248.843 75.8434 250.343 74.3431C251.843 72.8429 253.878 72 256 72C258.122 72 260.157 72.8429 261.657 74.3431C263.157 75.8434 264 77.8783 264 80V96C264 98.1217 263.157 100.157 261.657 101.657C260.157 103.157 258.122 104 256 104Z" fill="white"/>
<path d="M336 125.44C334.596 125.439 333.218 125.068 332.003 124.365C330.788 123.662 329.779 122.652 329.078 121.436C328.377 120.221 328.008 118.842 328.008 117.438C328.009 116.034 328.378 114.656 329.08 113.44L337.08 99.576C338.148 97.7536 339.894 96.4277 341.937 95.8877C343.979 95.3477 346.152 95.6375 347.982 96.6938C349.811 97.7501 351.148 99.4872 351.702 101.526C352.256 103.565 351.98 105.74 350.936 107.576L342.936 121.44C342.233 122.657 341.222 123.668 340.004 124.37C338.787 125.072 337.406 125.441 336 125.44V125.44Z" fill="white"/>
<path d="M176 125.44C174.594 125.441 173.213 125.072 171.996 124.37C170.778 123.668 169.767 122.657 169.064 121.44L161.064 107.576C160.02 105.74 159.744 103.565 160.298 101.526C160.851 99.4872 162.189 97.7501 164.018 96.6938C165.848 95.6375 168.021 95.3477 170.063 95.8877C172.106 96.4277 173.852 97.7536 174.92 99.576L182.92 113.44C183.622 114.656 183.991 116.034 183.992 117.438C183.992 118.842 183.623 120.221 182.922 121.436C182.221 122.652 181.212 123.662 179.997 124.365C178.782 125.068 177.404 125.439 176 125.44V125.44Z" fill="white"/>
<path d="M117.432 184C116.027 184.003 114.647 183.633 113.432 182.928L99.568 174.928C97.7455 173.86 96.4197 172.114 95.8797 170.071C95.3397 168.029 95.6295 165.856 96.6858 164.026C97.7421 162.197 99.4791 160.859 101.518 160.306C103.557 159.752 105.732 160.028 107.568 161.072L121.432 169.072C122.957 169.953 124.149 171.312 124.823 172.939C125.497 174.566 125.615 176.37 125.159 178.071C124.703 179.772 123.699 181.275 122.302 182.347C120.905 183.419 119.193 184 117.432 184Z" fill="white"/>
<path d="M96 264H80C77.8783 264 75.8434 263.157 74.3431 261.657C72.8429 260.157 72 258.122 72 256C72 253.878 72.8429 251.843 74.3431 250.343C75.8434 248.843 77.8783 248 80 248H96C98.1217 248 100.157 248.843 101.657 250.343C103.157 251.843 104 253.878 104 256C104 258.122 103.157 260.157 101.657 261.657C100.157 263.157 98.1217 264 96 264Z" fill="white"/>
<path d="M103.584 352C101.823 352 100.111 351.419 98.7141 350.347C97.3171 349.275 96.3127 347.772 95.857 346.071C95.4012 344.37 95.5194 342.566 96.1932 340.939C96.8671 339.312 98.059 337.953 99.584 337.072L113.448 329.072C114.358 328.538 115.365 328.19 116.41 328.047C117.456 327.904 118.519 327.97 119.539 328.239C120.559 328.509 121.515 328.978 122.353 329.618C123.192 330.259 123.895 331.06 124.422 331.973C124.95 332.887 125.291 333.896 125.427 334.942C125.563 335.989 125.491 337.051 125.214 338.07C124.938 339.088 124.463 340.041 123.817 340.875C123.17 341.709 122.365 342.407 121.448 342.928L107.584 350.928C106.369 351.633 104.989 352.003 103.584 352V352Z" fill="white"/>
<path d="M256 336C245.49 336.029 235.079 333.969 225.372 329.94C215.665 325.91 206.856 319.992 199.456 312.528C198.693 311.789 198.085 310.905 197.667 309.929C197.249 308.952 197.03 307.902 197.022 306.84C197.015 305.778 197.219 304.725 197.622 303.742C198.026 302.759 198.621 301.867 199.373 301.117C200.125 300.367 201.02 299.774 202.003 299.373C202.987 298.973 204.041 298.772 205.103 298.782C206.165 298.793 207.214 299.015 208.19 299.436C209.165 299.856 210.047 300.467 210.784 301.232C216.7 307.275 223.755 312.085 231.542 315.383C239.329 318.681 247.692 320.402 256.149 320.447C264.605 320.492 272.986 318.86 280.808 315.644C288.629 312.429 295.735 307.694 301.715 301.715C307.694 295.735 312.429 288.629 315.644 280.808C318.86 272.986 320.492 264.605 320.447 256.149C320.402 247.692 318.681 239.329 315.383 231.542C312.085 223.755 307.275 216.7 301.232 210.784C300.467 210.047 299.856 209.165 299.436 208.19C299.015 207.214 298.793 206.165 298.782 205.103C298.772 204.041 298.973 202.987 299.373 202.003C299.774 201.02 300.367 200.125 301.117 199.373C301.867 198.621 302.759 198.026 303.742 197.622C304.725 197.219 305.778 197.015 306.84 197.022C307.902 197.03 308.952 197.249 309.929 197.667C310.905 198.085 311.789 198.693 312.528 199.456C323.705 210.643 331.316 224.892 334.4 240.402C337.483 255.913 335.9 271.989 329.851 286.601C323.802 301.212 313.558 313.703 300.414 322.495C287.269 331.288 271.814 335.987 256 336V336Z" fill="white"/>
</svg>
