<svg width="512" height="512" viewBox="0 0 512 512" fill="none" xmlns="http://www.w3.org/2000/svg">
<path d="M508.945 150.429C508.916 150.236 508.879 150.044 508.835 149.853C505.969 134.59 501.211 119.989 494.815 106.298C494.639 105.776 494.404 105.272 494.111 104.792C488.161 92.353 480.854 80.682 472.381 69.974C472.067 69.447 471.694 68.947 471.24 68.493C471.179 68.432 471.112 68.38 471.049 68.321C462.726 58.046 453.319 48.684 443.004 40.408C442.946 40.346 442.894 40.281 442.834 40.22C442.368 39.755 441.853 39.371 441.31 39.054C430.559 30.634 418.846 23.389 406.372 17.5C405.897 17.209 405.397 16.978 404.881 16.803C391.111 10.453 376.431 5.75 361.09 2.964C360.899 2.921 360.707 2.885 360.514 2.857C350.002 0.98 339.184 0 328.141 0C319.648 0 311.293 0.592 303.104 1.711C303.078 1.713 303.052 1.719 303.025 1.722C225.371 12.378 163.02 71.701 147.834 147.839C127.902 151.81 108.707 159.057 91.108 169.359C87.526 171.456 86.323 176.059 88.419 179.641C90.516 183.223 95.12 184.426 98.7 182.33C113.261 173.806 129.017 167.562 145.387 163.744C144.665 170.352 144.282 177.061 144.282 183.859C144.282 194.892 145.261 205.701 147.133 216.203C147.163 216.409 147.2 216.614 147.247 216.817C150.033 232.153 154.735 246.828 161.083 260.593C161.258 261.111 161.491 261.612 161.782 262.089C167.672 274.562 174.915 286.274 183.335 297.025C183.653 297.568 184.036 298.083 184.502 298.549C184.561 298.609 184.626 298.659 184.687 298.716C192.964 309.032 202.326 318.44 212.603 326.765C212.662 326.828 212.714 326.894 212.775 326.955C213.228 327.408 213.728 327.782 214.254 328.095C224.963 336.569 236.634 343.876 249.073 349.826C249.553 350.12 250.058 350.354 250.579 350.53C264.272 356.928 278.875 361.686 294.141 364.552C294.328 364.595 294.516 364.631 294.705 364.66C305.551 366.661 316.725 367.716 328.141 367.716C334.941 367.716 341.652 367.333 348.262 366.61C330.805 441.228 263.72 496.968 183.858 496.968C90.765 496.968 15.028 421.231 15.028 328.138C15.028 281.196 33.834 237.59 67.981 205.351C70.999 202.502 71.135 197.746 68.287 194.728C65.437 191.71 60.681 191.574 57.664 194.422C39.647 211.432 25.467 231.507 15.52 254.09C5.223 277.477 0 302.39 0 328.141C0 429.522 82.48 512 183.86 512C272.914 512 347.373 448.356 364.166 364.165C440.749 348.889 500.327 285.899 510.469 207.611C510.474 207.565 510.484 207.52 510.488 207.475C511.484 199.741 512 191.859 512 183.859C512 172.445 510.945 161.273 508.945 150.429ZM465.101 85.258C470.117 92.207 474.625 99.546 478.554 107.228L345.392 240.39C341.282 232.855 336.657 225.641 331.571 218.788L465.101 85.258ZM455.713 73.389L322.072 207.03C316.56 200.747 310.633 194.837 304.323 189.355L437.951 55.728C444.295 61.172 450.236 67.074 455.713 73.389ZM426.037 46.385L292.507 179.916C285.624 174.857 278.38 170.261 270.817 166.183L403.958 33.041C411.674 36.935 419.054 41.398 426.037 46.385ZM361.898 18.422C371.326 20.344 380.47 23.057 389.26 26.483L256.492 159.25C248.014 155.59 239.212 152.545 230.136 150.183L361.898 18.422ZM307.329 16.313C314.151 15.47 321.096 15.029 328.142 15.029C333.266 15.029 338.334 15.271 343.344 15.72L212.541 146.523C203.193 145.053 193.615 144.282 183.86 144.282C182.333 144.282 180.808 144.32 179.284 144.358L307.329 16.313ZM280.5 21.885L166.167 136.219C182.328 81.367 225.649 38.045 280.5 21.885ZM160.004 199.062C159.554 194.051 159.312 188.983 159.312 183.859C159.312 176.813 159.753 169.868 160.596 163.046L163.027 160.615C169.916 159.761 176.872 159.311 183.861 159.311C188.985 159.311 194.053 159.553 199.063 160.002L160.004 199.062ZM162.704 217.615L217.615 162.704C227.044 164.625 236.187 167.338 244.977 170.765L170.764 244.979C167.339 236.188 164.625 227.044 162.704 217.615ZM190.668 281.755C185.68 274.771 181.217 267.391 177.323 259.676L259.677 177.322C267.392 181.217 274.772 185.679 281.756 190.667L190.668 281.755ZM200.01 293.669L293.669 200.01C300.013 205.455 305.954 211.356 311.431 217.671L217.672 311.43C211.356 305.954 205.455 300.013 200.01 293.669ZM229.54 320.818L320.819 229.54C325.836 236.489 330.343 243.827 334.272 251.509L251.508 334.273C243.827 330.342 236.488 325.834 229.54 320.818ZM293.378 349.082C283.991 347.11 274.887 344.361 266.141 340.895L340.896 266.141C344.361 274.887 347.11 283.991 349.083 293.378L293.378 349.082ZM351.564 347.575L347.576 351.563C341.197 352.298 334.714 352.689 328.141 352.689C322.635 352.689 317.192 352.415 311.819 351.897L351.897 311.819C352.415 317.191 352.689 322.634 352.689 328.141C352.689 334.714 352.299 341.196 351.564 347.575ZM361.557 280.904C359.151 271.864 356.072 263.098 352.378 254.66L485.178 121.861C488.643 130.607 491.392 139.711 493.364 149.097L361.557 280.904ZM374.054 346.342L490.625 229.77C474.709 286.021 430.303 330.426 374.054 346.342ZM495.846 203.293L367.677 331.462C367.697 330.356 367.719 329.251 367.719 328.14C367.719 318.02 366.884 308.093 365.303 298.413L496.18 167.537C496.698 172.909 496.972 178.352 496.972 183.859C496.971 190.432 496.58 196.915 495.846 203.293Z" fill="white"/>
</svg>
