<svg height="512" viewBox="0 0 60 60" width="512" xmlns="http://www.w3.org/2000/svg"><g id="Page-1" fill="none" fill-rule="evenodd"><g id="018---Data-Visualisation" fill="rgb(0,0,0)" fill-rule="nonzero"><path id="Shape" d="m15 52h-3c-.5522847 0-1 .4477153-1 1s.4477153 1 1 1h3c.5522847 0 1-.4477153 1-1s-.4477153-1-1-1z"/><circle id="Oval" cx="6" cy="53" r="1"/><circle id="Oval" cx="9" cy="53" r="1"/><path id="Shape" d="m31.221 24.082c-.8103283-.1093393-1.6316717-.1093393-2.442 0-7.568.826-13.345 8.981-13.6 9.347-.2387333.3432366-.2387333.7987634 0 1.142.254.366 6.031 8.521 13.6 9.347.8103283.1093393 1.6316717.1093393 2.442 0 7.568-.826 13.345-8.981 13.6-9.347.2387333-.3432366.2387333-.7987634 0-1.142-.255-.366-6.032-8.521-13.6-9.347zm6.779 9.918c-.0060205 4.0624014-3.0525437 7.4768455-7.088 7.944-.3.03-.605.056-.912.056s-.611-.026-.913-.056c-4.0244072-.4786911-7.0550852-3.8912234-7.0550852-7.944s3.030678-7.4653089 7.0550852-7.944c.3-.03.6-.056.911-.056s.611.026.913.056c4.0358528.4666862 7.0829203 3.8812587 7.089 7.944zm-20.75 0c1.0478196-1.3307633 2.208453-2.568683 3.469-3.7-.9565437 2.3739326-.9565437 5.0260674 0 7.4-1.2598424-1.1320368-2.4204167-2.3698935-3.469-3.7zm22.031 3.7c.9565437-2.3739326.9565437-5.0260674 0-7.4 1.2598424 1.1320368 2.4204167 2.3698935 3.469 3.7-1.0478196 1.3307633-2.208453 2.568683-3.469 3.7z"/><path id="Shape" d="m28 28c-1.2588047-.0052241-2.3857794.7792973-2.8178948 1.9616225-.4321155 1.1823251-.0766153 2.5086605.8888948 3.3163775-.3985932 2.1575263 1.0151527 4.2334511 3.1687206 4.6529053 2.1535678.4194541 4.2430771-.9741356 4.6833529-3.1235433.4402758-2.1494078-.9330272-4.2523057-3.0780735-4.713362-.3916624-1.2426977-1.542051-2.0894161-2.845-2.094zm0 2c.5522847 0 1 .4477153 1 1s-.4477153 1-1 1-1-.4477153-1-1 .4477153-1 1-1zm4 4c0 1.1045695-.8954305 2-2 2s-2-.8954305-2-2c1.2106173-.0004708 2.3023159-.7285328 2.768-1.846.7457249.3101354 1.231731 1.0383556 1.232 1.846z"/><path id="Shape" d="m57 6h-18c-1.6568542 0-3 1.34314575-3 3v1h-6v-7c0-1.65685425-1.3431458-3-3-3h-18c-1.65685425 0-3 1.34314575-3 3v7.1c-2.3264168.4784327-3.99700171 2.5248992-4 4.9v33c-1.1045695 0-2 .8954305-2 2v3c.00440864 3.8641657 3.13583434 6.9955914 7 7h46c3.8641657-.0044086 6.9955914-3.1358343 7-7v-3c0-1.1045695-.8954305-2-2-2v-24.184c1.1943509-.4222546 1.9947486-1.5492146 2-2.816v-12c0-1.65685425-1.3431458-3-3-3zm-49-3c0-.55228475.44771525-1 1-1h18c.5522847 0 1 .44771525 1 1v12c0 .5522847-.4477153 1-1 1h-18c-.55228475 0-1-.4477153-1-1zm3 35c1.1045695 0 2 .8954305 2 2s-.8954305 2-2 2-2-.8954305-2-2 .8954305-2 2-2zm47 15c-.0033061 2.7600532-2.2399468 4.9966939-5 5h-46c-2.76005315-.0033061-4.99669388-2.2399468-5-5v-3h17v1c0 2.209139 1.790861 4 4 4h14c2.209139 0 4-1.790861 4-4v-1h17zm-37-3h18v1c0 1.1045695-.8954305 2-2 2h-14c-1.1045695 0-2-.8954305-2-2zm19-2h-36v-33c.00525139-1.2667854.80564913-2.3937454 2-2.816v2.816c0 1.6568542 1.34314575 3 3 3h1v18.142c-1.95030672.503567-3.22192521 2.3787867-2.96811879 4.3770005.25380643 1.9982138 1.95385067 3.4959828 3.96811879 3.4959828 2.0142681 0 3.7143124-1.497769 3.9681188-3.4959828s-1.0178121-3.8734335-2.9681188-4.3770005v-18.142h15c1.6568542 0 3-1.3431458 3-3v-3h6v9c0 1.6568542 1.3431458 3 3 3h10v14.142c-1.9503067.503567-3.2219252 2.3787867-2.9681188 4.3770005s1.9538507 3.4959828 3.9681188 3.4959828 3.7143124-1.497769 3.9681188-3.4959828-1.0178121-3.8734335-2.9681188-4.3770005v-14.142h5v24zm10-8c1.1045695 0 2 .8954305 2 2s-.8954305 2-2 2-2-.8954305-2-2 .8954305-2 2-2zm8-19c0 .5522847-.4477153 1-1 1h-18c-.5522847 0-1-.4477153-1-1v-12c0-.55228475.4477153-1 1-1h18c.5522847 0 1 .44771525 1 1z"/><path id="Shape" d="m11 6h3c.5522847 0 1-.44771525 1-1s-.4477153-1-1-1h-3c-.5522847 0-1 .44771525-1 1s.4477153 1 1 1z"/><path id="Shape" d="m18 6h7c.5522847 0 1-.44771525 1-1s-.4477153-1-1-1h-7c-.5522847 0-1 .44771525-1 1s.4477153 1 1 1z"/><path id="Shape" d="m11 10h14c.5522847 0 1-.44771525 1-1s-.4477153-1-1-1h-14c-.5522847 0-1 .44771525-1 1s.4477153 1 1 1z"/><path id="Shape" d="m11 14h9c.5522847 0 1-.4477153 1-1s-.4477153-1-1-1h-9c-.5522847 0-1 .4477153-1 1s.4477153 1 1 1z"/><path id="Shape" d="m25 12h-1c-.5522847 0-1 .4477153-1 1s.4477153 1 1 1h1c.5522847 0 1-.4477153 1-1s-.4477153-1-1-1z"/><path id="Shape" d="m41 12h3c.5522847 0 1-.4477153 1-1s-.4477153-1-1-1h-3c-.5522847 0-1 .4477153-1 1s.4477153 1 1 1z"/><path id="Shape" d="m55 10h-7c-.5522847 0-1 .4477153-1 1s.4477153 1 1 1h7c.5522847 0 1-.4477153 1-1s-.4477153-1-1-1z"/><path id="Shape" d="m55 14h-14c-.5522847 0-1 .4477153-1 1s.4477153 1 1 1h14c.5522847 0 1-.4477153 1-1s-.4477153-1-1-1z"/><path id="Shape" d="m50 18h-9c-.5522847 0-1 .4477153-1 1s.4477153 1 1 1h9c.5522847 0 1-.4477153 1-1s-.4477153-1-1-1z"/><path id="Shape" d="m55 18h-1c-.5522847 0-1 .4477153-1 1s.4477153 1 1 1h1c.5522847 0 1-.4477153 1-1s-.4477153-1-1-1z"/></g></g></svg>